<?xml version="1.0" encoding="UTF-8" standalone="no"?>
<!-- Created with Inkscape (http://www.inkscape.org/) -->

<svg
   xmlns:dc="http://purl.org/dc/elements/1.1/"
   xmlns:cc="http://creativecommons.org/ns#"
   xmlns:rdf="http://www.w3.org/1999/02/22-rdf-syntax-ns#"
   xmlns:svg="http://www.w3.org/2000/svg"
   xmlns="http://www.w3.org/2000/svg"
   xmlns:sodipodi="http://sodipodi.sourceforge.net/DTD/sodipodi-0.dtd"
   xmlns:inkscape="http://www.inkscape.org/namespaces/inkscape"
   width="96"
   height="16"
   viewBox="0 0 96 16"
   id="svg2"
   version="1.1"
   inkscape:version="0.91 r13725"
   sodipodi:docname="a1.svg"
   inkscape:export-filename="/home/deedles/devel/go/src/github.com/DeedleFake/incoming/images/a1.png"
   inkscape:export-xdpi="180"
   inkscape:export-ydpi="180">
  <defs
     id="defs4" />
  <sodipodi:namedview
     id="base"
     pagecolor="#000000"
     bordercolor="#646464"
     borderopacity="1"
     inkscape:pageopacity="0"
     inkscape:pageshadow="2"
     inkscape:zoom="5.656854"
     inkscape:cx="10.592783"
     inkscape:cy="3.3527186"
     inkscape:document-units="px"
     inkscape:current-layer="layer1"
     showgrid="false"
     units="px"
     borderlayer="true"
     inkscape:window-width="1918"
     inkscape:window-height="964"
     inkscape:window-x="0"
     inkscape:window-y="19"
     inkscape:window-maximized="1" />
  <metadata
     id="metadata7">
    <rdf:RDF>
      <cc:Work
         rdf:about="">
        <dc:format>image/svg+xml</dc:format>
        <dc:type
           rdf:resource="http://purl.org/dc/dcmitype/StillImage" />
        <dc:title />
      </cc:Work>
    </rdf:RDF>
  </metadata>
  <g
     inkscape:label="Layer 1"
     inkscape:groupmode="layer"
     id="layer1"
     transform="translate(0,-1036.3622)">
    <g
       id="g4224"
       transform="matrix(1.066639,0,0,1.1221686,-3.6751853e-4,-128.56562)">
      <path
         inkscape:connector-curvature="0"
         id="path4189"
         transform="translate(0,1037.3622)"
         d="M 6.7675781,0.75 A 5.6105046,6.649487 40.237444 0 0 1.7832031,3.3554688 5.6105046,6.649487 40.237444 0 0 1.7695312,12.054688 5.6105046,6.649487 40.237444 0 0 2.1210938,12.322266 6.649487,5.6105046 0 0 0 7.7832031,15 6.649487,5.6105046 0 0 0 14.25,10.675781 6.649487,5.6105046 27.593114 0 0 14.453125,10.335938 6.649487,5.6105046 27.593114 0 0 11.158203,2.2832031 6.649487,5.6105046 27.593114 0 0 10.408203,1.9472656 5.6105046,6.649487 40.237444 0 0 10.361328,1.9023438 5.6105046,6.649487 40.237444 0 0 6.7675781,0.75 Z"
         style="opacity:1;fill:#3e2d16;fill-opacity:1;fill-rule:nonzero;stroke:none;stroke-opacity:0.39215686" />
      <path
         inkscape:connector-curvature="0"
         id="path4195"
         d="m 9.40689,1045.8167 a 2.3872862,2.4949777 0 0 0 2.596608,0.3532 2.3872862,2.4949777 0 0 0 1.10369,-3.3345 2.3872862,2.4949777 0 0 0 -1.735703,-1.3648 2.3872862,2.4949777 0 0 1 0.594024,0.8003 2.3872862,2.4949777 0 0 1 -1.10369,3.3346 2.3872862,2.4949777 0 0 1 -1.454929,0.2112 z"
         style="opacity:1;fill:#000000;fill-opacity:0.39215686;fill-rule:nonzero;stroke:none;stroke-opacity:0.39215686" />
      <path
         style="opacity:1;fill:#000000;fill-opacity:0.39215686;fill-rule:nonzero;stroke:none;stroke-opacity:0.39215686"
         d="m 4.21939,1049.9417 a 2.3872862,2.4949777 0 0 0 2.596608,0.3532 2.3872862,2.4949777 0 0 0 1.10369,-3.3345 2.3872862,2.4949777 0 0 0 -1.735703,-1.3648 2.3872862,2.4949777 0 0 1 0.594024,0.8003 2.3872862,2.4949777 0 0 1 -1.10369,3.3346 2.3872862,2.4949777 0 0 1 -1.454929,0.2112 z"
         id="path4200"
         inkscape:connector-curvature="0" />
      <path
         inkscape:connector-curvature="0"
         id="path4206"
         d="m 3.25064,1043.6917 a 2.3872862,2.4949777 0 0 0 2.596608,0.3532 2.3872862,2.4949777 0 0 0 1.10369,-3.3345 2.3872862,2.4949777 0 0 0 -1.735703,-1.3648 2.3872862,2.4949777 0 0 1 0.594024,0.8003 2.3872862,2.4949777 0 0 1 -1.10369,3.3346 2.3872862,2.4949777 0 0 1 -1.454929,0.2112 z"
         style="opacity:1;fill:#000000;fill-opacity:0.39215686;fill-rule:nonzero;stroke:none;stroke-opacity:0.39215686" />
      <path
         inkscape:connector-curvature="0"
         id="path4215"
         d="m 12.173797,1040.2978 a 6.649487,5.6105046 27.593114 0 1 1.066406,6.2949 6.649487,5.6105046 27.593114 0 1 -0.203125,0.3399 6.649487,5.6105046 0 0 1 -6.4667968,4.3242 6.649487,5.6105046 0 0 1 -4.2578125,-1.3125 6.649487,5.6105046 0 0 0 5.4511719,2.4179 6.649487,5.6105046 0 0 0 6.4667964,-4.3242 6.649487,5.6105046 27.593114 0 0 0.203125,-0.3398 6.649487,5.6105046 27.593114 0 0 -2.259765,-7.4004 z"
         style="opacity:1;fill:#000000;fill-opacity:0.39215686;fill-rule:nonzero;stroke:none;stroke-opacity:0.39215686" />
    </g>
    <g
       id="g4231"
       transform="matrix(0.58234426,0.94011979,-1.0086498,0.54277842,1074.1321,469.94247)">
      <path
         style="opacity:1;fill:#3e2d16;fill-opacity:1;fill-rule:nonzero;stroke:none;stroke-opacity:0.39215686"
         d="M 6.7675781,0.75 A 5.6105046,6.649487 40.237444 0 0 1.7832031,3.3554688 5.6105046,6.649487 40.237444 0 0 1.7695312,12.054688 5.6105046,6.649487 40.237444 0 0 2.1210938,12.322266 6.649487,5.6105046 0 0 0 7.7832031,15 6.649487,5.6105046 0 0 0 14.25,10.675781 6.649487,5.6105046 27.593114 0 0 14.453125,10.335938 6.649487,5.6105046 27.593114 0 0 11.158203,2.2832031 6.649487,5.6105046 27.593114 0 0 10.408203,1.9472656 5.6105046,6.649487 40.237444 0 0 10.361328,1.9023438 5.6105046,6.649487 40.237444 0 0 6.7675781,0.75 Z"
         transform="translate(0,1037.3622)"
         id="path4233"
         inkscape:connector-curvature="0" />
      <path
         style="opacity:1;fill:#000000;fill-opacity:0.39215686;fill-rule:nonzero;stroke:none;stroke-opacity:0.39215686"
         d="m 9.40689,1045.8167 a 2.3872862,2.4949777 0 0 0 2.596608,0.3532 2.3872862,2.4949777 0 0 0 1.10369,-3.3345 2.3872862,2.4949777 0 0 0 -1.735703,-1.3648 2.3872862,2.4949777 0 0 1 0.594024,0.8003 2.3872862,2.4949777 0 0 1 -1.10369,3.3346 2.3872862,2.4949777 0 0 1 -1.454929,0.2112 z"
         id="path4235"
         inkscape:connector-curvature="0" />
      <path
         inkscape:connector-curvature="0"
         id="path4237"
         d="m 4.21939,1049.9417 a 2.3872862,2.4949777 0 0 0 2.596608,0.3532 2.3872862,2.4949777 0 0 0 1.10369,-3.3345 2.3872862,2.4949777 0 0 0 -1.735703,-1.3648 2.3872862,2.4949777 0 0 1 0.594024,0.8003 2.3872862,2.4949777 0 0 1 -1.10369,3.3346 2.3872862,2.4949777 0 0 1 -1.454929,0.2112 z"
         style="opacity:1;fill:#000000;fill-opacity:0.39215686;fill-rule:nonzero;stroke:none;stroke-opacity:0.39215686" />
      <path
         style="opacity:1;fill:#000000;fill-opacity:0.39215686;fill-rule:nonzero;stroke:none;stroke-opacity:0.39215686"
         d="m 3.25064,1043.6917 a 2.3872862,2.4949777 0 0 0 2.596608,0.3532 2.3872862,2.4949777 0 0 0 1.10369,-3.3345 2.3872862,2.4949777 0 0 0 -1.735703,-1.3648 2.3872862,2.4949777 0 0 1 0.594024,0.8003 2.3872862,2.4949777 0 0 1 -1.10369,3.3346 2.3872862,2.4949777 0 0 1 -1.454929,0.2112 z"
         id="path4239"
         inkscape:connector-curvature="0" />
      <path
         style="opacity:1;fill:#000000;fill-opacity:0.39215686;fill-rule:nonzero;stroke:none;stroke-opacity:0.39215686"
         d="m 12.173797,1040.2978 a 6.649487,5.6105046 27.593114 0 1 1.066406,6.2949 6.649487,5.6105046 27.593114 0 1 -0.203125,0.3399 6.649487,5.6105046 0 0 1 -6.4667968,4.3242 6.649487,5.6105046 0 0 1 -4.2578125,-1.3125 6.649487,5.6105046 0 0 0 5.4511719,2.4179 6.649487,5.6105046 0 0 0 6.4667964,-4.3242 6.649487,5.6105046 27.593114 0 0 0.203125,-0.3398 6.649487,5.6105046 27.593114 0 0 -2.259765,-7.4004 z"
         id="path4241"
         inkscape:connector-curvature="0" />
    </g>
    <g
       transform="matrix(-0.54909747,0.95637819,-0.95106472,-0.55216521,1038.2649,1614.4313)"
       id="g4279">
      <path
         inkscape:connector-curvature="0"
         id="path4281"
         transform="translate(0,1037.3622)"
         d="M 6.7675781,0.75 A 5.6105046,6.649487 40.237444 0 0 1.7832031,3.3554688 5.6105046,6.649487 40.237444 0 0 1.7695312,12.054688 5.6105046,6.649487 40.237444 0 0 2.1210938,12.322266 6.649487,5.6105046 0 0 0 7.7832031,15 6.649487,5.6105046 0 0 0 14.25,10.675781 6.649487,5.6105046 27.593114 0 0 14.453125,10.335938 6.649487,5.6105046 27.593114 0 0 11.158203,2.2832031 6.649487,5.6105046 27.593114 0 0 10.408203,1.9472656 5.6105046,6.649487 40.237444 0 0 10.361328,1.9023438 5.6105046,6.649487 40.237444 0 0 6.7675781,0.75 Z"
         style="opacity:1;fill:#3e2d16;fill-opacity:1;fill-rule:nonzero;stroke:none;stroke-opacity:0.39215686" />
      <path
         inkscape:connector-curvature="0"
         id="path4283"
         d="m 9.40689,1045.8167 a 2.3872862,2.4949777 0 0 0 2.596608,0.3532 2.3872862,2.4949777 0 0 0 1.10369,-3.3345 2.3872862,2.4949777 0 0 0 -1.735703,-1.3648 2.3872862,2.4949777 0 0 1 0.594024,0.8003 2.3872862,2.4949777 0 0 1 -1.10369,3.3346 2.3872862,2.4949777 0 0 1 -1.454929,0.2112 z"
         style="opacity:1;fill:#000000;fill-opacity:0.39215686;fill-rule:nonzero;stroke:none;stroke-opacity:0.39215686" />
      <path
         style="opacity:1;fill:#000000;fill-opacity:0.39215686;fill-rule:nonzero;stroke:none;stroke-opacity:0.39215686"
         d="m 4.21939,1049.9417 a 2.3872862,2.4949777 0 0 0 2.596608,0.3532 2.3872862,2.4949777 0 0 0 1.10369,-3.3345 2.3872862,2.4949777 0 0 0 -1.735703,-1.3648 2.3872862,2.4949777 0 0 1 0.594024,0.8003 2.3872862,2.4949777 0 0 1 -1.10369,3.3346 2.3872862,2.4949777 0 0 1 -1.454929,0.2112 z"
         id="path4285"
         inkscape:connector-curvature="0" />
      <path
         inkscape:connector-curvature="0"
         id="path4287"
         d="m 3.25064,1043.6917 a 2.3872862,2.4949777 0 0 0 2.596608,0.3532 2.3872862,2.4949777 0 0 0 1.10369,-3.3345 2.3872862,2.4949777 0 0 0 -1.735703,-1.3648 2.3872862,2.4949777 0 0 1 0.594024,0.8003 2.3872862,2.4949777 0 0 1 -1.10369,3.3346 2.3872862,2.4949777 0 0 1 -1.454929,0.2112 z"
         style="opacity:1;fill:#000000;fill-opacity:0.39215686;fill-rule:nonzero;stroke:none;stroke-opacity:0.39215686" />
      <path
         inkscape:connector-curvature="0"
         id="path4289"
         d="m 12.173797,1040.2978 a 6.649487,5.6105046 27.593114 0 1 1.066406,6.2949 6.649487,5.6105046 27.593114 0 1 -0.203125,0.3399 6.649487,5.6105046 0 0 1 -6.4667968,4.3242 6.649487,5.6105046 0 0 1 -4.2578125,-1.3125 6.649487,5.6105046 0 0 0 5.4511719,2.4179 6.649487,5.6105046 0 0 0 6.4667964,-4.3242 6.649487,5.6105046 27.593114 0 0 0.203125,-0.3398 6.649487,5.6105046 27.593114 0 0 -2.259765,-7.4004 z"
         style="opacity:1;fill:#000000;fill-opacity:0.39215686;fill-rule:nonzero;stroke:none;stroke-opacity:0.39215686" />
    </g>
    <g
       id="g4291"
       transform="matrix(-1.066639,0,0,-1.1221686,64.000367,2217.29)">
      <path
         style="opacity:1;fill:#3e2d16;fill-opacity:1;fill-rule:nonzero;stroke:none;stroke-opacity:0.39215686"
         d="M 6.7675781,0.75 A 5.6105046,6.649487 40.237444 0 0 1.7832031,3.3554688 5.6105046,6.649487 40.237444 0 0 1.7695312,12.054688 5.6105046,6.649487 40.237444 0 0 2.1210938,12.322266 6.649487,5.6105046 0 0 0 7.7832031,15 6.649487,5.6105046 0 0 0 14.25,10.675781 6.649487,5.6105046 27.593114 0 0 14.453125,10.335938 6.649487,5.6105046 27.593114 0 0 11.158203,2.2832031 6.649487,5.6105046 27.593114 0 0 10.408203,1.9472656 5.6105046,6.649487 40.237444 0 0 10.361328,1.9023438 5.6105046,6.649487 40.237444 0 0 6.7675781,0.75 Z"
         transform="translate(0,1037.3622)"
         id="path4293"
         inkscape:connector-curvature="0" />
      <path
         style="opacity:1;fill:#000000;fill-opacity:0.39215686;fill-rule:nonzero;stroke:none;stroke-opacity:0.39215686"
         d="m 9.40689,1045.8167 a 2.3872862,2.4949777 0 0 0 2.596608,0.3532 2.3872862,2.4949777 0 0 0 1.10369,-3.3345 2.3872862,2.4949777 0 0 0 -1.735703,-1.3648 2.3872862,2.4949777 0 0 1 0.594024,0.8003 2.3872862,2.4949777 0 0 1 -1.10369,3.3346 2.3872862,2.4949777 0 0 1 -1.454929,0.2112 z"
         id="path4295"
         inkscape:connector-curvature="0" />
      <path
         inkscape:connector-curvature="0"
         id="path4297"
         d="m 4.21939,1049.9417 a 2.3872862,2.4949777 0 0 0 2.596608,0.3532 2.3872862,2.4949777 0 0 0 1.10369,-3.3345 2.3872862,2.4949777 0 0 0 -1.735703,-1.3648 2.3872862,2.4949777 0 0 1 0.594024,0.8003 2.3872862,2.4949777 0 0 1 -1.10369,3.3346 2.3872862,2.4949777 0 0 1 -1.454929,0.2112 z"
         style="opacity:1;fill:#000000;fill-opacity:0.39215686;fill-rule:nonzero;stroke:none;stroke-opacity:0.39215686" />
      <path
         style="opacity:1;fill:#000000;fill-opacity:0.39215686;fill-rule:nonzero;stroke:none;stroke-opacity:0.39215686"
         d="m 3.25064,1043.6917 a 2.3872862,2.4949777 0 0 0 2.596608,0.3532 2.3872862,2.4949777 0 0 0 1.10369,-3.3345 2.3872862,2.4949777 0 0 0 -1.735703,-1.3648 2.3872862,2.4949777 0 0 1 0.594024,0.8003 2.3872862,2.4949777 0 0 1 -1.10369,3.3346 2.3872862,2.4949777 0 0 1 -1.454929,0.2112 z"
         id="path4299"
         inkscape:connector-curvature="0" />
      <path
         style="opacity:1;fill:#000000;fill-opacity:0.39215686;fill-rule:nonzero;stroke:none;stroke-opacity:0.39215686"
         d="m 12.173797,1040.2978 a 6.649487,5.6105046 27.593114 0 1 1.066406,6.2949 6.649487,5.6105046 27.593114 0 1 -0.203125,0.3399 6.649487,5.6105046 0 0 1 -6.4667968,4.3242 6.649487,5.6105046 0 0 1 -4.2578125,-1.3125 6.649487,5.6105046 0 0 0 5.4511719,2.4179 6.649487,5.6105046 0 0 0 6.4667964,-4.3242 6.649487,5.6105046 27.593114 0 0 0.203125,-0.3398 6.649487,5.6105046 27.593114 0 0 -2.259765,-7.4004 z"
         id="path4301"
         inkscape:connector-curvature="0" />
    </g>
    <g
       transform="matrix(-0.58234426,-0.94011979,1.0086498,-0.54277842,-978.13209,1618.7819)"
       id="g4303">
      <path
         inkscape:connector-curvature="0"
         id="path4305"
         transform="translate(0,1037.3622)"
         d="M 6.7675781,0.75 A 5.6105046,6.649487 40.237444 0 0 1.7832031,3.3554688 5.6105046,6.649487 40.237444 0 0 1.7695312,12.054688 5.6105046,6.649487 40.237444 0 0 2.1210938,12.322266 6.649487,5.6105046 0 0 0 7.7832031,15 6.649487,5.6105046 0 0 0 14.25,10.675781 6.649487,5.6105046 27.593114 0 0 14.453125,10.335938 6.649487,5.6105046 27.593114 0 0 11.158203,2.2832031 6.649487,5.6105046 27.593114 0 0 10.408203,1.9472656 5.6105046,6.649487 40.237444 0 0 10.361328,1.9023438 5.6105046,6.649487 40.237444 0 0 6.7675781,0.75 Z"
         style="opacity:1;fill:#3e2d16;fill-opacity:1;fill-rule:nonzero;stroke:none;stroke-opacity:0.39215686" />
      <path
         inkscape:connector-curvature="0"
         id="path4307"
         d="m 9.40689,1045.8167 a 2.3872862,2.4949777 0 0 0 2.596608,0.3532 2.3872862,2.4949777 0 0 0 1.10369,-3.3345 2.3872862,2.4949777 0 0 0 -1.735703,-1.3648 2.3872862,2.4949777 0 0 1 0.594024,0.8003 2.3872862,2.4949777 0 0 1 -1.10369,3.3346 2.3872862,2.4949777 0 0 1 -1.454929,0.2112 z"
         style="opacity:1;fill:#000000;fill-opacity:0.39215686;fill-rule:nonzero;stroke:none;stroke-opacity:0.39215686" />
      <path
         style="opacity:1;fill:#000000;fill-opacity:0.39215686;fill-rule:nonzero;stroke:none;stroke-opacity:0.39215686"
         d="m 4.21939,1049.9417 a 2.3872862,2.4949777 0 0 0 2.596608,0.3532 2.3872862,2.4949777 0 0 0 1.10369,-3.3345 2.3872862,2.4949777 0 0 0 -1.735703,-1.3648 2.3872862,2.4949777 0 0 1 0.594024,0.8003 2.3872862,2.4949777 0 0 1 -1.10369,3.3346 2.3872862,2.4949777 0 0 1 -1.454929,0.2112 z"
         id="path4309"
         inkscape:connector-curvature="0" />
      <path
         inkscape:connector-curvature="0"
         id="path4311"
         d="m 3.25064,1043.6917 a 2.3872862,2.4949777 0 0 0 2.596608,0.3532 2.3872862,2.4949777 0 0 0 1.10369,-3.3345 2.3872862,2.4949777 0 0 0 -1.735703,-1.3648 2.3872862,2.4949777 0 0 1 0.594024,0.8003 2.3872862,2.4949777 0 0 1 -1.10369,3.3346 2.3872862,2.4949777 0 0 1 -1.454929,0.2112 z"
         style="opacity:1;fill:#000000;fill-opacity:0.39215686;fill-rule:nonzero;stroke:none;stroke-opacity:0.39215686" />
      <path
         inkscape:connector-curvature="0"
         id="path4313"
         d="m 12.173797,1040.2978 a 6.649487,5.6105046 27.593114 0 1 1.066406,6.2949 6.649487,5.6105046 27.593114 0 1 -0.203125,0.3399 6.649487,5.6105046 0 0 1 -6.4667968,4.3242 6.649487,5.6105046 0 0 1 -4.2578125,-1.3125 6.649487,5.6105046 0 0 0 5.4511719,2.4179 6.649487,5.6105046 0 0 0 6.4667964,-4.3242 6.649487,5.6105046 27.593114 0 0 0.203125,-0.3398 6.649487,5.6105046 27.593114 0 0 -2.259765,-7.4004 z"
         style="opacity:1;fill:#000000;fill-opacity:0.39215686;fill-rule:nonzero;stroke:none;stroke-opacity:0.39215686" />
    </g>
    <g
       id="g4315"
       transform="matrix(0.54909747,-0.95637819,0.95106472,0.55216521,-910.26487,474.29309)">
      <path
         style="opacity:1;fill:#3e2d16;fill-opacity:1;fill-rule:nonzero;stroke:none;stroke-opacity:0.39215686"
         d="M 6.7675781,0.75 A 5.6105046,6.649487 40.237444 0 0 1.7832031,3.3554688 5.6105046,6.649487 40.237444 0 0 1.7695312,12.054688 5.6105046,6.649487 40.237444 0 0 2.1210938,12.322266 6.649487,5.6105046 0 0 0 7.7832031,15 6.649487,5.6105046 0 0 0 14.25,10.675781 6.649487,5.6105046 27.593114 0 0 14.453125,10.335938 6.649487,5.6105046 27.593114 0 0 11.158203,2.2832031 6.649487,5.6105046 27.593114 0 0 10.408203,1.9472656 5.6105046,6.649487 40.237444 0 0 10.361328,1.9023438 5.6105046,6.649487 40.237444 0 0 6.7675781,0.75 Z"
         transform="translate(0,1037.3622)"
         id="path4317"
         inkscape:connector-curvature="0" />
      <path
         style="opacity:1;fill:#000000;fill-opacity:0.39215686;fill-rule:nonzero;stroke:none;stroke-opacity:0.39215686"
         d="m 9.40689,1045.8167 a 2.3872862,2.4949777 0 0 0 2.596608,0.3532 2.3872862,2.4949777 0 0 0 1.10369,-3.3345 2.3872862,2.4949777 0 0 0 -1.735703,-1.3648 2.3872862,2.4949777 0 0 1 0.594024,0.8003 2.3872862,2.4949777 0 0 1 -1.10369,3.3346 2.3872862,2.4949777 0 0 1 -1.454929,0.2112 z"
         id="path4319"
         inkscape:connector-curvature="0" />
      <path
         inkscape:connector-curvature="0"
         id="path4321"
         d="m 4.21939,1049.9417 a 2.3872862,2.4949777 0 0 0 2.596608,0.3532 2.3872862,2.4949777 0 0 0 1.10369,-3.3345 2.3872862,2.4949777 0 0 0 -1.735703,-1.3648 2.3872862,2.4949777 0 0 1 0.594024,0.8003 2.3872862,2.4949777 0 0 1 -1.10369,3.3346 2.3872862,2.4949777 0 0 1 -1.454929,0.2112 z"
         style="opacity:1;fill:#000000;fill-opacity:0.39215686;fill-rule:nonzero;stroke:none;stroke-opacity:0.39215686" />
      <path
         style="opacity:1;fill:#000000;fill-opacity:0.39215686;fill-rule:nonzero;stroke:none;stroke-opacity:0.39215686"
         d="m 3.25064,1043.6917 a 2.3872862,2.4949777 0 0 0 2.596608,0.3532 2.3872862,2.4949777 0 0 0 1.10369,-3.3345 2.3872862,2.4949777 0 0 0 -1.735703,-1.3648 2.3872862,2.4949777 0 0 1 0.594024,0.8003 2.3872862,2.4949777 0 0 1 -1.10369,3.3346 2.3872862,2.4949777 0 0 1 -1.454929,0.2112 z"
         id="path4323"
         inkscape:connector-curvature="0" />
      <path
         style="opacity:1;fill:#000000;fill-opacity:0.39215686;fill-rule:nonzero;stroke:none;stroke-opacity:0.39215686"
         d="m 12.173797,1040.2978 a 6.649487,5.6105046 27.593114 0 1 1.066406,6.2949 6.649487,5.6105046 27.593114 0 1 -0.203125,0.3399 6.649487,5.6105046 0 0 1 -6.4667968,4.3242 6.649487,5.6105046 0 0 1 -4.2578125,-1.3125 6.649487,5.6105046 0 0 0 5.4511719,2.4179 6.649487,5.6105046 0 0 0 6.4667964,-4.3242 6.649487,5.6105046 27.593114 0 0 0.203125,-0.3398 6.649487,5.6105046 27.593114 0 0 -2.259765,-7.4004 z"
         id="path4325"
         inkscape:connector-curvature="0" />
    </g>
  </g>
</svg>
