<?xml version="1.0" encoding="UTF-8" standalone="no"?>
<!-- Created with Inkscape (http://www.inkscape.org/) -->

<svg
   xmlns:dc="http://purl.org/dc/elements/1.1/"
   xmlns:cc="http://creativecommons.org/ns#"
   xmlns:rdf="http://www.w3.org/1999/02/22-rdf-syntax-ns#"
   xmlns:svg="http://www.w3.org/2000/svg"
   xmlns="http://www.w3.org/2000/svg"
   xmlns:sodipodi="http://sodipodi.sourceforge.net/DTD/sodipodi-0.dtd"
   xmlns:inkscape="http://www.inkscape.org/namespaces/inkscape"
   width="1920"
   height="160"
   viewBox="0 0 1920.0001 160"
   id="svg2"
   version="1.1"
   inkscape:version="0.91 r13725"
   sodipodi:docname="bg.svg"
   inkscape:export-filename="/home/deedles/devel/school/cs-2110/hw-10/images/bg.png"
   inkscape:export-xdpi="90"
   inkscape:export-ydpi="90">
  <defs
     id="defs4" />
  <sodipodi:namedview
     id="base"
     pagecolor="#000000"
     bordercolor="#666666"
     borderopacity="1.0"
     inkscape:pageopacity="1"
     inkscape:pageshadow="2"
     inkscape:zoom="0.30052038"
     inkscape:cx="1598.08"
     inkscape:cy="158.9483"
     inkscape:document-units="px"
     inkscape:current-layer="layer1"
     showgrid="false"
     units="px"
     borderlayer="true"
     inkscape:window-width="1364"
     inkscape:window-height="747"
     inkscape:window-x="0"
     inkscape:window-y="19"
     inkscape:window-maximized="1"
     showguides="false" />
  <metadata
     id="metadata7">
    <rdf:RDF>
      <cc:Work
         rdf:about="">
        <dc:format>image/svg+xml</dc:format>
        <dc:type
           rdf:resource="http://purl.org/dc/dcmitype/StillImage" />
        <dc:title></dc:title>
      </cc:Work>
    </rdf:RDF>
  </metadata>
  <g
     inkscape:label="Layer 1"
     inkscape:groupmode="layer"
     id="layer1"
     transform="translate(0,-892.36226)">
    <path
       style="fill:#c8c8c8;fill-opacity:1"
       id="ellipse4142"
       sodipodi:type="arc"
       sodipodi:cx="360.00003"
       sodipodi:cy="972.36224"
       sodipodi:rx="120"
       sodipodi:ry="80"
       sodipodi:start="0"
       sodipodi:end="1.5707963"
       d="m 480.00003,972.36224 a 120,80 0 0 1 -120,79.99996 l 0,-79.99996 z" />
    <path
       id="ellipse4148"
       style="fill:#c8c8c8;fill-opacity:1"
       sodipodi:type="arc"
       sodipodi:cx="600"
       sodipodi:cy="972.36224"
       sodipodi:rx="120"
       sodipodi:ry="80"
       sodipodi:start="0"
       sodipodi:end="3.1415927"
       d="m 720,972.36224 a 120,80 0 0 1 -60,69.28206 120,80 0 0 1 -120,0 120,80 0 0 1 -60,-69.28206 l 120,0 z" />
    <path
       style="fill:#c8c8c8;fill-opacity:1"
       id="ellipse4154"
       sodipodi:type="arc"
       sodipodi:cx="840"
       sodipodi:cy="972.36224"
       sodipodi:rx="120"
       sodipodi:ry="80"
       sodipodi:start="0"
       sodipodi:end="4.712389"
       d="M 960,972.36224 A 120,80 0 0 1 885.92201,1046.2726 120,80 0 0 1 755.14719,1028.9308 120,80 0 0 1 729.13446,941.74757 120,80 0 0 1 840,892.36224 l 0,80 z" />
    <ellipse
       cx="1080.0001"
       cy="972.36224"
       rx="120"
       ry="80"
       id="ellipse4160"
       style="fill:#c8c8c8;fill-opacity:1" />
    <path
       style="fill:#c8c8c8;fill-opacity:1"
       id="ellipse4162"
       ry="80"
       rx="120"
       cy="972.36224"
       cx="3000"
       d=""
       inkscape:connector-curvature="0" />
    <path
       d="m 1920.0001,-972.36224 a 120,80 0 0 1 -120,80 l 0,-80 z"
       sodipodi:end="1.5707963"
       sodipodi:start="0"
       sodipodi:ry="80"
       sodipodi:rx="120"
       sodipodi:cy="-972.36224"
       sodipodi:cx="1800.0001"
       sodipodi:type="arc"
       id="path4220"
       style="fill:#c8c8c8;fill-opacity:1"
       transform="scale(1,-1)" />
    <path
       d="m 1680.0001,-972.36224 a 120,80 0 0 1 -60,69.28203 120,80 0 0 1 -120,0 120,80 0 0 1 -60,-69.28204 l 120,10e-6 z"
       sodipodi:end="3.1415927"
       sodipodi:start="0"
       sodipodi:ry="80"
       sodipodi:rx="120"
       sodipodi:cy="-972.36224"
       sodipodi:cx="1560.0001"
       sodipodi:type="arc"
       style="fill:#c8c8c8;fill-opacity:1"
       id="path4226"
       transform="scale(1,-1)" />
    <path
       d="m 1440,-972.36224 a 120,80 0 0 1 -74.078,73.91036 120,80 0 0 1 -130.7748,-17.34182 120,80 0 0 1 -26.0127,-87.1832 120,80 0 0 1 110.8655,-49.3853 l 0,79.99996 z"
       sodipodi:end="4.712389"
       sodipodi:start="0"
       sodipodi:ry="80"
       sodipodi:rx="120"
       sodipodi:cy="-972.36224"
       sodipodi:cx="1320"
       sodipodi:type="arc"
       id="path4232"
       style="fill:#c8c8c8;fill-opacity:1"
       transform="scale(1,-1)" />
  </g>
</svg>
